<svg height="512" viewBox="0 0 41 60" width="512" xmlns="http://www.w3.org/2000/svg"><g id="Page-1" fill="none" fill-rule="evenodd"><g id="030---Lane-Changeover" fill="rgb(0,0,0)" fill-rule="nonzero"><path id="Shape" d="m37 24.7324v-14.7324h1.9912c.8092514-.00038782 1.5387262-.48781776 1.8487568-1.23532627s.1396698-1.60814704-.4317568-2.18117373l-5.99-6c-.7938766-.75677501-2.0421234-.75677501-2.836 0l-5.99 6.0005c-.5713254.57291555-.7416781 1.43338519-.4317409 2.1807699.3099371.74738472 1.0392397 1.2347713 1.8483409 1.2352301h1.9912v13.0024l-7.9954 4.6155-9.0046-5.1955v-12.4224h1.9912c.8092514-.00038782 1.5387262-.48781776 1.8487568-1.23532627s.1396698-1.60814704-.4317568-2.18117373l-5.99-6c-.79387659-.75677501-2.04212341-.75677501-2.836 0l-5.9904 6.0005c-.57137665.57296711-.74170376 1.43353359-.43166412 2.18095449.31003965.74742091 1.03949016 1.23474825 1.84866412 1.23504551h1.9912v14.1592c.00263801 1.786502.95578867 3.4366107 2.502 4.3315l6.4965 3.7493-6.4956 3.75c-1.54650694.8943705-2.50005227 2.5443022-2.5029 4.3308v17.6792c.00126747 1.1040441.89595593 1.9987325 2 2h4c1.1040441-.0012675 1.9987325-.8959559 2-2v-15.9424l8.9961-5.1954 8.0039 4.6153v16.5225c.0012675 1.1040441.8959559 1.9987325 2 2h4c1.1040441-.0012675 1.9987325-.8959559 2-2v-18.2524c-.0029044-1.7841565-.9533821-3.432461-2.4961-4.3287l-5.5049-3.1789 5.5049-3.1792c1.5426704-.8961403 2.4931502-2.5443343 2.4961-4.3284zm-2 15.0152v18.2524h-4v-16.5225c-.0010266-.7143471-.3819331-1.3742295-1-1.7324l-7-4.0366 4.001-2.3135 6.501 3.755c.9257827.5378213 1.4961913 1.5269356 1.498 2.5976zm-27.499-12.9893c-.92760941-.5371221-1.49939036-1.527206-1.501-2.5991v-15.1592c0-.55228475-.44771525-1-1-1l-2.9922-.0034 5.9942-6 5.9892 6.0034h-2.9912c-.5522847 0-1 .44771525-1 1v13.4224c.0010266.7143471.3819331 1.3742295 1 1.7324l8.001 4.6162-2.9473 1.705-1.0548.6088zm26.001.5713-22.502 12.9956c-.618082.3581555-.9989939 1.0180474-1 1.7324v15.9424h-4v-17.6792c.00157022-1.072166.57382548-2.0624115 1.502-2.5991l7.989-4.6117.01-.0041 1.4631-.8463 13.0359-7.5247c.6180678-.3582184.9989681-1.0181282 1-1.7325v-14.0024c0-.55228475-.4477153-1-1-1l-2.9922-.0034 5.9942-6 5.999 6.0034h-.01-2.991c-.5522847 0-1 .44771525-1 1v15.7324c-.0018087 1.0706644-.5722173 2.0597787-1.498 2.5976z"/></g></g></svg>